<svg width="272" height="135" viewBox="0 0 272 135" fill="none" xmlns="http://www.w3.org/2000/svg">
<path d="M0 73V18L48 0V45C48 52.5 46 54.5 42.4419 56.5L0 73Z" fill="#B7A78E"/>
<path d="M106 62V117L58 135V90C58 82.5 60 80.5 63.5581 78.5L106 62Z" fill="#B7A78E"/>
<path d="M48 119V89.5835C47.9995 82.6852 42.0249 68.5627 25 74.3681L0 84.0045V119H48Z" fill="#B7A78E"/>
<path d="M58 45.4165V16H106V50.9955L81 60.6319C63.9751 66.4373 58.0005 52.3148 58 45.4165Z" fill="#B7A78E"/>
<path d="M57.7266 62.7734C53.9653 59.0124 53 50 53 50C53 50 52.0347 59.0124 48.2734 62.7734C44.5122 66.5344 35.5 67.5 35.5 67.5C35.5 67.5 44.5122 68.4656 48.2734 72.2266C52.0347 75.9876 53 85 53 85C53 85 53.9653 75.9876 57.7266 72.2266C61.4878 68.4656 70.5 67.5 70.5 67.5C70.5 67.5 61.4878 66.5344 57.7266 62.7734Z" fill="#B7A78E"/>
<path d="M184.711 60.1023V25H189.057V37.855C190.777 35.1038 194.025 33.6333 197.703 33.6333C203.531 33.6333 208.164 37.3332 208.164 44.7806V60.1023H203.865V45.3973C203.865 40.0845 200.951 37.3807 196.557 37.3807C192.114 37.3807 189.057 40.1319 189.057 45.7293V60.1023H184.711Z" fill="#25282B"/>
<path d="M118 60.1023V27.0397H122.347V60.1023H118Z" fill="#25282B"/>
<path d="M147.476 60.1023V45.3973C147.476 40.0845 144.563 37.3807 140.168 37.3807C135.726 37.3807 132.669 40.1319 132.669 45.7293V60.1023H128.322V34.1076H132.669V37.8076C134.388 35.1038 137.541 33.6333 141.076 33.6333C147.142 33.6333 151.775 37.3332 151.775 44.7806V60.1023H147.476Z" fill="#25282B"/>
<path d="M169.7 37.6653V52.987C169.7 58.2049 172.327 60.1023 176.96 60.1023H180.877V56.4497H177.677C175.002 56.4497 174.046 55.5485 174.046 52.987V37.6653H180.877V34.1076H174.046V27.5615H169.7V34.1076H166.308V37.6653H169.7Z" fill="#25282B"/>
<path fill-rule="evenodd" clip-rule="evenodd" d="M225.152 60.5292C231.648 60.5292 235.852 56.8292 237.189 52.0857H232.508C231.553 54.8844 229.069 56.8767 225.152 56.8767C220.71 56.8767 216.984 53.9831 216.65 48.7178H237.571C237.667 47.8165 237.715 47.0575 237.715 46.1088C237.715 38.9935 232.747 33.6807 225.152 33.6807C217.509 33.6807 212.207 38.8512 212.207 47.0575C212.207 55.3113 217.7 60.5292 225.152 60.5292ZM216.697 45.2075C217.175 40.1319 220.71 37.3332 224.961 37.3332C229.451 37.3332 233.272 40.1319 233.225 45.2075H216.697Z" fill="#25282B"/>
<path d="M155.783 104.573V89.8681C155.783 84.5553 152.917 81.8515 148.618 81.8515C144.224 81.8515 141.214 84.6502 141.214 90.2476V104.573H136.915V89.8681C136.915 84.5553 134.05 81.8515 129.751 81.8515C125.356 81.8515 122.347 84.6502 122.347 90.2476V104.573H118V78.5784H122.347V82.3258C124.066 79.5746 127.171 78.1041 130.61 78.1041C134.909 78.1041 138.492 80.0015 140.211 83.8912C141.74 80.1438 145.466 78.1041 149.478 78.1041C155.449 78.1041 160.082 81.804 160.082 89.2514V104.573H155.783Z" fill="#25282B"/>
<path d="M165.779 78.5784V104.573H170.126V78.5784H165.779Z" fill="#25282B"/>
<path d="M165.063 71.4156C165.063 73.0759 166.353 74.3567 168.024 74.3567C169.601 74.3567 170.89 73.0759 170.89 71.4156C170.89 69.7554 169.601 68.4746 168.024 68.4746C166.353 68.4746 165.063 69.7554 165.063 71.4156Z" fill="#25282B"/>
<path fill-rule="evenodd" clip-rule="evenodd" d="M174.477 91.4809C174.477 83.3694 179.875 78.1515 186.944 78.1515C191.052 78.1515 194.826 80.2387 196.641 83.2271V69.4708H201.036V104.573H196.641V99.6872C195.065 102.581 191.673 105 186.897 105C179.875 105 174.477 99.5449 174.477 91.4809ZM196.641 91.5283C196.641 85.504 192.533 81.8989 187.756 81.8989C182.98 81.8989 178.92 85.3617 178.92 91.4809C178.92 97.6001 182.98 101.205 187.756 101.205C192.533 101.205 196.641 97.6475 196.641 91.5283Z" fill="#25282B"/>
<path fill-rule="evenodd" clip-rule="evenodd" d="M217.791 78.1515C210.722 78.1515 205.324 83.3694 205.324 91.4809C205.324 99.5449 210.722 105 217.743 105C222.52 105 225.911 102.581 227.488 99.6872V104.573H231.882V69.4708H227.488V83.2271C225.673 80.2387 221.899 78.1515 217.791 78.1515ZM218.603 81.8989C223.38 81.8989 227.488 85.504 227.488 91.5283C227.488 97.6475 223.38 101.205 218.603 101.205C213.826 101.205 209.766 97.6001 209.766 91.4809C209.766 85.3617 213.826 81.8989 218.603 81.8989Z" fill="#25282B"/>
<path d="M237.795 104.573V69.4708H242.142V104.573H237.795Z" fill="#25282B"/>
<path fill-rule="evenodd" clip-rule="evenodd" d="M259.437 105C265.934 105 270.137 101.3 271.475 96.5565H266.793C265.838 99.3552 263.354 101.347 259.437 101.347C254.995 101.347 251.269 98.4539 250.935 93.1886H271.857C271.952 92.2873 272 91.5283 272 90.5796C272 83.4643 267.032 78.1515 259.437 78.1515C251.795 78.1515 246.493 83.322 246.493 91.5283C246.493 99.7821 251.986 105 259.437 105ZM250.983 89.6783C251.46 84.6027 254.995 81.804 259.246 81.804C263.736 81.804 267.558 84.6027 267.51 89.6783H250.983Z" fill="#25282B"/>
<path d="M240.927 32.5443V33.326H242.223V37.3728H243.198V33.326H244.494V32.5443H240.927Z" fill="#25282B"/>
<path d="M244.996 32.5443V37.3728H245.972V34.2322L247.281 37.3728H248.02L249.322 34.2322V37.3728H250.297V32.5443H249.197L247.65 36.1345L246.104 32.5443H244.996Z" fill="#25282B"/>
</svg>
