<svg width="166" height="167" viewBox="0 0 166 167" fill="none" xmlns="http://www.w3.org/2000/svg">
<path d="M83.0007 163.001C98.8233 163.001 114.29 158.309 127.446 149.519C140.602 140.728 150.856 128.233 156.912 113.615C162.967 98.997 164.549 82.9118 161.462 67.3932C158.375 51.8746 150.76 37.6202 139.572 26.4319C128.383 15.2436 114.125 7.624 98.6063 4.53716C83.0877 1.45031 67.0054 3.03487 52.3872 9.08993C37.7689 15.145 25.2751 25.399 16.4845 38.555C7.6939 51.7111 3 67.1781 3 83.0007C3.06121 104.199 11.5104 124.512 26.5002 139.502C41.49 154.492 61.802 162.94 83.0007 163.001Z" fill="#808361" stroke="white" stroke-width="6" stroke-linecap="round" stroke-linejoin="round"/>
<path d="M44 83L69.9665 108L122 58" stroke="white" stroke-width="8" stroke-linecap="round" stroke-linejoin="round"/>
</svg>
