<svg width="27" height="27" viewBox="0 0 27 27" fill="none" xmlns="http://www.w3.org/2000/svg">
<path d="M7.5 22L7.5 7.5C7.5 6.96875 7.03125 6.5 6.5 6.5C5.9375 6.5 5.5 6.96875 5.5 7.5L5.5 22C5.5 22.2812 5.71875 22.5 6 22.5H7C7.25 22.5 7.5 22.2812 7.5 22ZM20.375 6.5C20.9688 6.5 21.5 6.875 21.5 7.46875V16.9062C21.5 17.2812 21.25 17.625 20.8125 17.7812C19.4688 18.3125 18.3438 18.5 17.3438 18.5C15.0313 18.5 13.4375 17.5312 11.125 17.5312C10.3438 17.5312 9.5 17.6562 8.5 17.9688L8.5 7C9.59375 6.65625 10.5 6.53125 11.2812 6.53125C13.4375 6.53125 14.5312 7.53125 16.4062 7.53125C17.2812 7.53125 18.3438 7.3125 19.75 6.65625C19.9688 6.5625 20.1562 6.5 20.375 6.5Z" fill="#808361"/>
</svg>
