<svg width="20" height="23" viewBox="0 0 20 23" fill="none" xmlns="http://www.w3.org/2000/svg">
<path fill-rule="evenodd" clip-rule="evenodd" d="M3.89082 0.500291L3.91367 0.5H17.0926C17.8631 0.508787 18.6037 0.821937 19.1503 1.37879C19.6965 1.93517 20.0043 2.69032 19.9974 3.48048V5.71182C19.9974 5.73273 19.9968 5.75363 19.9954 5.7745C19.9246 6.86435 19.4839 7.89362 18.7512 8.69393C18.731 8.71604 18.7097 8.73713 18.6875 8.75714L14.4141 12.6039C13.9705 13.0476 13.722 13.6401 13.7127 14.2546V18.6177C13.7127 18.6246 13.7127 18.6315 13.7125 18.6384C13.7124 18.6433 13.7123 18.6483 13.7121 18.6532C13.6944 19.1324 13.571 19.6011 13.3503 20.0256C13.1301 20.4494 12.8195 20.817 12.4427 21.1034C12.4255 21.1164 12.4079 21.1289 12.3899 21.1407L10.9925 22.055C10.9842 22.0604 10.9758 22.0657 10.9674 22.0709C10.5209 22.3427 10.0121 22.4898 9.49302 22.4995C8.97392 22.5092 8.46033 22.3812 8.00438 22.1264C7.5486 21.8717 7.16516 21.4986 6.89692 21.0425C6.62871 20.5863 6.48604 20.065 6.48588 19.5323V14.1806C6.44321 13.6215 6.24426 13.083 5.90862 12.6262L2.15126 8.59867L2.14945 8.59674C1.48908 7.88484 1.0832 6.96872 1.0029 5.99325C1.00072 5.96687 0.999637 5.9404 0.999637 5.91393V3.59601C0.984972 3.20287 1.0481 2.81209 1.18337 2.44555C1.32166 2.07086 1.5329 1.72906 1.80346 1.43965C2.07349 1.15081 2.39724 0.919381 2.75598 0.75837C3.11451 0.597456 3.5003 0.51025 3.89082 0.500291ZM3.92672 2.38571C3.7759 2.39083 3.62858 2.42512 3.49317 2.48589C3.35503 2.54789 3.23212 2.63621 3.13069 2.74471C3.02979 2.85263 2.95284 2.9781 2.90302 3.11308C2.85295 3.24875 2.83095 3.39116 2.83735 3.53242C2.83802 3.54701 2.83835 3.56162 2.83835 3.57623V5.87087C2.88978 6.39858 3.11338 6.89965 3.48084 7.29614C3.48058 7.29586 3.4811 7.29642 3.48084 7.29614L7.27203 11.3599C7.29379 11.3832 7.31436 11.4077 7.33367 11.4332C7.91362 12.1985 8.25859 13.1193 8.32247 14.0824C8.32388 14.1037 8.32459 14.125 8.32459 14.1463V19.5317C8.32459 19.5316 8.32459 19.5318 8.32459 19.5317C8.3247 19.7185 8.37463 19.9039 8.47148 20.0686C8.56835 20.2334 8.70993 20.3732 8.88406 20.4705C9.05802 20.5677 9.25665 20.6179 9.4596 20.6141C9.65822 20.6104 9.85058 20.5552 10.0179 20.4559L11.3703 19.571C11.5203 19.452 11.6416 19.3042 11.7278 19.1385C11.8154 18.97 11.8649 18.7856 11.874 18.5974V14.2358C11.8884 13.0993 12.3519 12.0203 13.1542 11.2302C13.1641 11.2205 13.1742 11.211 13.1845 11.2017L17.4388 7.37205C17.8607 6.8977 18.1118 6.30236 18.1587 5.67815V3.46554C18.1616 3.19125 18.0555 2.92137 17.8545 2.71666C17.6537 2.51212 17.3747 2.39026 17.0766 2.38571H3.92672Z" fill="white"/>
</svg>
