<svg width="23" height="23" viewBox="0 0 23 23" fill="none" xmlns="http://www.w3.org/2000/svg">
<path fill-rule="evenodd" clip-rule="evenodd" d="M6.9793 1.29893C8.89729 0.504474 11.0082 0.296714 13.0442 0.701709C15.0803 1.1067 16.9506 2.10626 18.4186 3.57423C19.8866 5.04226 20.8859 6.91266 21.2909 8.94863C21.6959 10.9845 21.4887 13.0949 20.6942 15.013C19.8997 16.931 18.5543 18.5703 16.8282 19.7236C15.102 20.877 13.0723 21.4926 10.9963 21.4926C8.21256 21.4926 5.54251 20.3868 3.57404 18.4183C1.60555 16.4498 0.5 13.78 0.5 10.9963C0.5 8.92044 1.11506 6.89114 2.26849 5.16491C3.42186 3.43878 5.06137 2.09337 6.9793 1.29893ZM10.9963 19.607C12.6994 19.607 14.3646 19.102 15.7806 18.1558C17.1967 17.2096 18.3004 15.8648 18.9521 14.2915C19.6038 12.7182 19.7738 10.987 19.4415 9.31648C19.1093 7.64604 18.2895 6.11168 17.0853 4.90753C15.8811 3.70333 14.3467 2.8833 12.6764 2.55105C11.006 2.21879 9.27425 2.38926 7.70088 3.04097C6.12745 3.69271 4.78244 4.79646 3.83629 6.21248C2.8902 7.62839 2.38557 9.29308 2.38557 10.9963C2.38557 13.2801 3.29256 15.4702 4.90734 17.085C6.52215 18.6998 8.71258 19.607 10.9963 19.607Z" fill="white"/>
<path fill-rule="evenodd" clip-rule="evenodd" d="M18.8768 18.8792C19.245 18.511 19.842 18.511 20.2101 18.8792L22.2214 20.8904C22.5896 21.2586 22.5896 21.8556 22.2214 22.2237C21.8532 22.5919 21.2563 22.5919 20.8881 22.2237L18.8768 20.2125C18.5087 19.8443 18.5087 19.2473 18.8768 18.8792Z" fill="white"/>
</svg>
